<?xml version="1.0" encoding="UTF-8"?>
<svg width="752pt" height="752pt" version="1.1" viewBox="0 0 752 752" xmlns="http://www.w3.org/2000/svg">
 <g>
  <path d="m581.95 311.5c-53.98-13.43-104.64-9.8594-146.67-0.32812l0.066406-0.019531 0.28906-3.4141 6.4141-6.418s3.0742-0.53125 5.5234-1.6641c2.457-1.1328-2.125-6.2578-4.5781-7.0156-2.457-0.75391-4.1484 5.8477-4.1484 5.8477l-5.2812 5.4688s-2.0742-1.5078-5.4727 2.6445c-3.4492-0.57422-6.7578-0.67188-9.8789-0.39453-1.7656-3.3906-4.2344-4.5664-6.3594-4.3008l-0.47656-2.3594c0.69141-0.33594 1.1836-1.0391 1.1836-1.8594 0-1.1445-0.9375-2.0742-2.082-2.0742-1.1406 0-2.0703 0.92969-2.0703 2.0742 0 1.1094 0.875 2.0078 1.9648 2.0664l0.48828 2.3945c-2.3359 0.84375-3.9688 3.5078-3.1875 6.7422-5.9844 2.6562-10.273 6.8867-11.836 11.469 0 0-2.457-0.94141-6.3086 4.3047l0.023438-0.003907c-21.5 7.8438-38.785 16.297-50.551 22.652-10.145-4.6406-42.535-11.613-46.691-11.367-3.457 0.20312-58.574 22.594-76.957 30.098-3.6992 1.5117-3.8945 2.4609-0.57422 2.5352 15.137 0.3125 57.312 1.1836 59.316 0.98438 2.4453-0.24609 13.445 10.262 13.32 15.277 0 0-5.5781 3.6055-9.6797 10.016-4.6758 0.13281-7.9609 1.5664-10.125 3.7656-0.17578-0.039062-0.35156-0.058594-0.53906-0.058594-1.4453 0-2.6172 1.1758-2.6172 2.6172 0 0.62109 0.22266 1.1758 0.57812 1.625-0.11719 0.35156-0.22266 0.69531-0.31641 1.0664-1.1797 0.25391-2.0586 1.2969-2.0586 2.5508 0 1.0898 0.66797 2.0312 1.6133 2.4219 0.03125 0.64062 0.09375 1.2852 0.19531 1.9219-0.82812 0.44141-1.3984 1.3008-1.3984 2.3008 0 1.4492 1.1758 2.6172 2.6172 2.6172 0.015625 0 0.027344-0.003906 0.046875-0.003906 0.15234 0.42188 0.31641 0.83203 0.49219 1.2461-0.57812 0.48437-0.95312 1.1953-0.95312 2.0039 0 1.4492 1.168 2.6172 2.6172 2.6172 0.27344 0 0.53516-0.046875 0.78516-0.12891 0.18359 0.27344 0.375 0.53516 0.56641 0.80469-0.23047 0.39453-0.375 0.84375-0.375 1.332 0 1.4492 1.168 2.6172 2.6172 2.6172 0.40234 0 0.78516-0.097656 1.1211-0.26562 0.375 0.33203 0.73828 0.64453 1.0977 0.92969-0.003906 0.058594-0.015625 0.10547-0.015625 0.15625 0 1.4531 1.1758 2.625 2.6172 2.625 0.48828 0 0.93359-0.14062 1.3242-0.36328 5.4375 2.4258 9.5859 0.74219 9.5859 0.74219l-9.4922 16.164c-3.0938 3.8633-50.273 19.906-31.039 21.438 0 0 24.078-6.8477 30.625-8.5664 15.648-4.1055 23.5-10.73 41.965-29.551 31.293 0.51172 44.379-4.3633 44.379-4.3633s3.5898 2.8242 3.0781 6.9297c-0.51172 4.1016-11.801 7.1836-20.266 11.031-8.4648 3.8438-9.2344 7.957-1.0234 6.4141 8.207-1.543 66.43-19.496 68.234-22.062 1.7891-2.5664-3.082-12.312-3.082-12.312s25.395-4.8672 64.129-16.676c38.738-11.793 43.348-44.371 54.383-50.016 11.031-5.6406 43.09-14.109 57.195-27.703 3.8672-2.293 7.7148-9.7383-4.3477-9.2227z"/>
  <path d="m254.7 411.08-104.91 26.918 106.43-20.078z"/>
  <path d="m239.19 426.4-65.562 19.625 66.699-15.352z"/>
  <path d="m258.28 428.46-56.617 20.973 57.855-17.281z"/>
 </g>
</svg>
